<svg width="32" height="32" viewBox="0 0 32 32" fill="none" xmlns="http://www.w3.org/2000/svg">
  <!-- Plate base -->
  <circle cx="16" cy="16" r="14" fill="#F5F1E8" stroke="#8B4513" stroke-width="1"/>
  <!-- Plate rim -->
  <circle cx="16" cy="16" r="12" fill="#FAF7F0" stroke="#A0522D" stroke-width="0.5"/>
  <!-- Fork (refined) -->
  <path d="M8 6 C7.8 9.5,7.8 12.5,8 16 L8 22" stroke="#8B4513" stroke-width="1.6" stroke-linecap="round"/>
  <path d="M6.6 9.2 L9.4 9.2" stroke="#8B4513" stroke-width="1.2" stroke-linecap="round"/>
  <path d="M6.6 11.0 L9.4 11.0" stroke="#8B4513" stroke-width="1.2" stroke-linecap="round"/>
  <path d="M6.6 12.8 L9.4 12.8" stroke="#8B4513" stroke-width="1.2" stroke-linecap="round"/>
  <!-- Knife (refined) -->
  <path d="M24.5 6 C25.2 7.5 25.6 9.4 25.6 11.2 C25.6 12.7 25.1 14.3 24.1 15.6 C23.4 16.5 22.5 17.2 21.5 17.7 L21.3 17.8 L21.3 22" fill="none" stroke="#8B4513" stroke-width="1.6" stroke-linecap="round"/>
  <path d="M21.3 22 C21.1 22.8 21.1 23.6 21.3 24.2" stroke="#8B4513" stroke-width="1.2" stroke-linecap="round"/>
  <!-- Center circle for date element -->
  <circle cx="16" cy="16" r="6" fill="#E8B86D" stroke="#D2691E" stroke-width="1"/>
  <!-- Clock hands representing time/date -->
  <line x1="16" y1="16" x2="16" y2="12" stroke="#8B4513" stroke-width="1" stroke-linecap="round"/>
  <line x1="16" y1="16" x2="19" y2="16" stroke="#8B4513" stroke-width="0.8" stroke-linecap="round"/>
  <!-- Center dot -->
  <circle cx="16" cy="16" r="1" fill="#8B4513"/>
</svg>
